<svg xmlns="http://www.w3.org/2000/svg" width="600" height="400" viewBox="0 0 600 400"><rect width="100%" height="100%" fill="#DDDDDD"/><path fill="#999999" d="M128.84 193.84h5.3q2.39 0 4.17-.6 1.78-.59 2.93-1.65 1.15-1.05 1.72-2.5.56-1.45.56-3.19 0-3.46-2.28-5.32-2.28-1.86-6.98-1.86h-5.42v15.12Zm15.69 7.06 11.41 16.82h-7.66q-2.17 0-3.15-1.7l-9.58-14.59q-.53-.81-1.18-1.16-.64-.35-1.9-.35h-3.63v17.8h-8.47v-45.55h13.89q4.63 0 7.96.96 3.32.96 5.45 2.69 2.12 1.74 3.13 4.15 1.01 2.41 1.01 5.3 0 2.3-.68 4.35t-1.95 3.72q-1.28 1.67-3.15 2.93-1.88 1.26-4.27 1.98.82.48 1.51 1.12.7.65 1.26 1.53Zm32.2 8.47v-5.45q-3.38.16-5.67.59-2.3.42-3.69 1.08-1.39.66-1.98 1.55-.6.88-.6 1.92 0 2.04 1.21 2.93 1.21.88 3.17.88 2.39 0 4.14-.87 1.75-.86 3.42-2.63Zm-16.45-16.98-1.38-2.48q5.57-5.11 13.42-5.11 2.83 0 5.07.93 2.23.93 3.78 2.58 1.54 1.66 2.34 3.96.81 2.3.81 5.04v20.41h-3.53q-1.1 0-1.7-.33-.6-.33-.95-1.34l-.69-2.33q-1.23 1.1-2.39 1.94-1.17.83-2.43 1.4-1.26.57-2.69.86-1.44.3-3.17.3-2.05 0-3.78-.55t-2.99-1.65q-1.26-1.1-1.95-2.74-.7-1.64-.7-3.81 0-1.23.41-2.44.41-1.22 1.34-2.32.93-1.1 2.41-2.08t3.64-1.7q2.16-.72 5.02-1.18 2.87-.46 6.56-.55v-1.89q0-3.25-1.39-4.81-1.39-1.55-4-1.55-1.89 0-3.14.44-1.24.44-2.18.99-.95.55-1.72.99-.77.44-1.72.44-.82 0-1.38-.42-.57-.43-.92-1Zm38.09-5.57.53 2.55q.98-.98 2.06-1.81 1.09-.84 2.3-1.42 1.22-.58 2.6-.91 1.39-.33 3.03-.33 2.64 0 4.69.89 2.05.9 3.42 2.52 1.37 1.63 2.08 3.88t.71 4.96v20.57h-7.78v-20.57q0-2.96-1.36-4.58-1.35-1.62-4.13-1.62-2.01 0-3.78.91-1.76.91-3.33 2.49v23.37h-7.79V185.4h4.76q1.51 0 1.99 1.42Zm49.07 21.32v-14.49q-1.32-1.6-2.88-2.26-1.56-.67-3.35-.67-1.77 0-3.19.67-1.41.66-2.42 2-1.01 1.33-1.54 3.4-.54 2.06-.54 4.86 0 2.84.46 4.81.45 1.97 1.3 3.21.85 1.25 2.08 1.8t2.74.55q2.43 0 4.13-1.01 1.7-1.01 3.21-2.87Zm0-37.23h7.78v46.81h-4.75q-1.55 0-1.96-1.42l-.66-3.12q-1.95 2.24-4.49 3.63-2.53 1.38-5.9 1.38-2.65 0-4.85-1.1-2.21-1.1-3.8-3.2-1.59-2.09-2.46-5.18-.86-3.09-.86-7.06 0-3.59.97-6.67.98-3.09 2.81-5.36 1.82-2.27 4.38-3.54 2.55-1.28 5.73-1.28 2.71 0 4.63.85t3.43 2.3v-17.04Zm29.77 13.99q3.59 0 6.54 1.16 2.94 1.17 5.04 3.31 2.09 2.14 3.23 5.23 1.13 3.09 1.13 6.9 0 3.84-1.13 6.93-1.14 3.08-3.23 5.26-2.1 2.17-5.04 3.34-2.95 1.16-6.54 1.16-3.62 0-6.58-1.16-2.96-1.17-5.06-3.34-2.09-2.18-3.24-5.26-1.15-3.09-1.15-6.93 0-3.81 1.15-6.9 1.15-3.09 3.24-5.23 2.1-2.14 5.06-3.31 2.96-1.16 6.58-1.16Zm0 27.31q4.03 0 5.97-2.71 1.94-2.71 1.94-7.94t-1.94-7.97q-1.94-2.74-5.97-2.74-4.09 0-6.06 2.76-1.97 2.75-1.97 7.95t1.97 7.92q1.97 2.73 6.06 2.73Zm29.67 5.51h-7.78V185.4h4.76q1.51 0 1.98 1.42l.51 2.39q.85-.94 1.78-1.73t1.98-1.35q1.06-.57 2.27-.9 1.21-.33 2.66-.33 3.06 0 5.03 1.65 1.96 1.65 2.94 4.4.76-1.61 1.89-2.76 1.14-1.15 2.49-1.88 1.35-.72 2.88-1.07 1.53-.34 3.07-.34 2.68 0 4.76.82 2.08.82 3.5 2.39 1.41 1.57 2.15 3.84.74 2.27.74 5.2v20.57h-7.78v-20.57q0-3.09-1.35-4.65-1.36-1.55-3.97-1.55-1.2 0-2.22.4-1.02.41-1.8 1.19-.77.77-1.21 1.93-.44 1.17-.44 2.68v20.57h-7.81v-20.57q0-3.24-1.31-4.72-1.31-1.48-3.83-1.48-1.7 0-3.16.83-1.47.83-2.73 2.28v23.66Zm101.97-22.77q0 5-1.67 9.19-1.67 4.19-4.69 7.22-3.03 3.02-7.28 4.69-4.25 1.67-9.45 1.67H368.4v-45.55h17.36q5.2 0 9.45 1.69 4.25 1.68 7.28 4.69 3.02 3.01 4.69 7.2 1.67 4.19 1.67 9.2Zm-8.7 0q0-3.75-.99-6.73-.99-2.98-2.86-5.04-1.88-2.06-4.54-3.17-2.66-1.1-6-1.1h-8.85v32.07h8.85q3.34 0 6-1.1 2.66-1.11 4.54-3.17 1.87-2.06 2.86-5.04.99-2.98.99-6.72Zm29.24-10.05q3.59 0 6.53 1.16 2.95 1.17 5.04 3.31 2.1 2.14 3.23 5.23 1.14 3.09 1.14 6.9 0 3.84-1.14 6.93-1.13 3.08-3.23 5.26-2.09 2.17-5.04 3.34-2.94 1.16-6.53 1.16-3.63 0-6.59-1.16-2.96-1.17-5.05-3.34-2.1-2.18-3.25-5.26-1.15-3.09-1.15-6.93 0-3.81 1.15-6.9 1.15-3.09 3.25-5.23 2.09-2.14 5.05-3.31 2.96-1.16 6.59-1.16Zm0 27.31q4.03 0 5.97-2.71 1.93-2.71 1.93-7.94t-1.93-7.97q-1.94-2.74-5.97-2.74-4.1 0-6.07 2.76-1.97 2.75-1.97 7.95t1.97 7.92q1.97 2.73 6.07 2.73Zm33.7-11.44q1.45 0 2.52-.39t1.78-1.09q.71-.69 1.07-1.67.36-.97.36-2.14 0-2.39-1.43-3.79-1.43-1.41-4.3-1.41-2.86 0-4.3 1.41-1.43 1.4-1.43 3.79 0 1.13.36 2.11t1.07 1.69q.71.71 1.8 1.1 1.08.39 2.5.39Zm8.79 18.4q0-.95-.57-1.54-.56-.6-1.54-.93-.98-.33-2.28-.49-1.31-.16-2.78-.24-1.46-.08-3.02-.14-1.56-.06-3.04-.25-1.29.72-2.09 1.7-.81.98-.81 2.27 0 .85.43 1.59.42.74 1.35 1.27.93.54 2.41.84 1.48.3 3.62.3 2.18 0 3.75-.33 1.58-.33 2.6-.92 1.03-.58 1.5-1.38.47-.81.47-1.75Zm-1.54-32.67h9.29v2.9q0 1.39-1.67 1.7l-2.9.54q.66 1.67.66 3.65 0 2.4-.96 4.33-.96 1.94-2.66 3.3-1.7 1.35-4.02 2.09-2.31.74-4.99.74-.94 0-1.83-.09-.88-.1-1.73-.26-1.51.92-1.51 2.05 0 .98.9 1.43.9.46 2.38.65t3.37.24q1.89.04 3.87.2 1.99.16 3.88.55 1.89.4 3.37 1.25 1.48.85 2.37 2.31.9 1.47.9 3.77 0 2.14-1.05 4.15-1.06 2.02-3.06 3.6-2 1.57-4.91 2.53-2.92.96-6.63.96-3.66 0-6.37-.71t-4.5-1.89q-1.8-1.18-2.68-2.72-.88-1.55-.88-3.22 0-2.26 1.37-3.79 1.37-1.53 3.76-2.44-1.29-.66-2.04-1.77-.76-1.1-.76-2.89 0-.73.27-1.5t.79-1.53q.52-.75 1.3-1.43.79-.68 1.86-1.21-2.46-1.33-3.86-3.53-1.4-2.21-1.4-5.17 0-2.39.96-4.33t2.68-3.31q1.72-1.37 4.06-2.09 2.35-.73 5.12-.73 2.08 0 3.91.43 1.82.42 3.34 1.24Z"/></svg>